<svg xmlns="http://www.w3.org/2000/svg" width="60" height="32" viewBox="0 0 60 32">
    <g fill="none" fill-rule="evenodd">
        <g fill="#009BFA">
            <g>
                <g>
                    <g>
                        <g>
                            <path d="M8.127 9.636H3.02c-.26 0-.48-.185-.532-.43L2.474.545c0-.3-.245-.545-.545-.545H.545C.245 0 0 .246 0 .545v9.463c0 .063.01.131.025.202.05.212.164.442.296.575l.705.704c.044.044.099.086.16.125.185.115.428.196.616.196h6.325c.3 0 .546-.245.546-.545v-1.083c0-.3-.246-.546-.546-.546M12.413 9.88l-.722-.347c-.079-.04-.169-.06-.264-.06-.092 0-.18.02-.259.06l-.722.347c-.085.041-.134.118-.134.213v1.23c0 .095.048.172.134.213.006.002.673.322.722.347.08.04.17.06.264.06.092 0 .18-.02.259-.06l.722-.347c.086-.041.134-.118.134-.214v-1.229c0-.095-.048-.172-.134-.213M29.112 2.969c-.107-.28-.283-.28-.39 0l-1.408 3.65c-.108.278.049.506.347.506h2.512c.298 0 .455-.228.347-.507l-1.408-3.65zm2.587 6.7c-.106-.279-.438-.507-.737-.507H26.89c-.298 0-.631.228-.74.506l-.634 1.631c-.108.278-.44.506-.74.506h-1.319c-.297 0-.451-.227-.34-.504L27.448.543c.112-.277.447-.504.747-.504h1.593c.299 0 .635.227.747.504l4.33 10.758c.111.277-.043.504-.341.504h-1.466c-.298 0-.63-.228-.736-.507l-.622-1.629zM37.443 8.439c0-.299-.118-.757-.262-1.019L33.64.515c-.144-.262-.018-.476.28-.476h1.466c.298 0 .66.215.804.477l2.185 4.48c.144.262.38.263.524.002L41.15.515c.145-.262.508-.476.807-.476h1.336c.299 0 .425.214.281.476L40 7.42c-.144.262-.263.72-.263 1.019v2.823c0 .299-.244.543-.543.543h-1.208c-.298 0-.543-.244-.543-.543V8.44zM17.046 2.027c-.3 0-.545.245-.545.545v2.687c0 .3.245.545.545.545h1.922c1.271 0 2.119-.756 2.119-1.898 0-1.124-.848-1.88-2.12-1.88h-1.92zm0 5.804c-.3 0-.545.245-.545.544v2.89c0 .3-.245.545-.545.545h-1.213c-.3 0-.545-.245-.545-.545V.545c0-.3.245-.545.545-.545h4.04c2.856 0 4.735 1.547 4.735 3.906 0 2.377-1.897 3.925-4.771 3.925h-1.7z" transform="translate(-541 -531) translate(71 308) translate(433 213) translate(37 10) translate(8 10)"/>
                        </g>
                    </g>
                </g>
            </g>
        </g>
    </g>
</svg>
