<svg xmlns="http://www.w3.org/2000/svg" width="60" height="32" viewBox="0 0 60 32">
    <g fill="none" fill-rule="evenodd">
        <g>
            <g>
                <g>
                    <g>
                        <g>
                            <g>
                                <path fill="#424242" d="M24.488 5.07v3.813h2.02c1.48 0 2.22-.612 2.22-1.835v-.256c0-.588-.178-1.022-.534-1.302-.356-.28-.865-.42-1.53-.42h-2.176zM23.08 3.846h3.663c.577 0 1.079.074 1.505.221.426.147.778.351 1.057.612.28.26.488.571.625.932.137.36.206.75.206 1.166v.3c0 .417-.073.808-.22 1.173-.147.365-.362.685-.646.96-.284.276-.636.494-1.057.655-.42.161-.91.242-1.469.242h-2.256v3.998H23.08V3.846zM35.997 10.562h-1.949c-.54 0-.927.105-1.16.313-.232.209-.348.498-.348.868v.199c0 .38.133.655.398.825.266.171.584.257.954.257.34 0 .637-.04.889-.121.25-.081.481-.202.69-.363.19-.143.325-.306.405-.491.08-.185.121-.424.121-.719v-.768zm-2.248 3.656c-.787 0-1.41-.194-1.87-.583-.46-.389-.69-.924-.69-1.607v-.385c0-.663.222-1.204.668-1.622.446-.417 1.167-.626 2.163-.626h1.977V8.94c0-.521-.126-.908-.377-1.16-.251-.25-.661-.376-1.23-.376-.456 0-.852.07-1.188.213-.337.142-.686.332-1.046.569l-.683-1.024c.38-.266.806-.496 1.28-.69.475-.195 1.025-.292 1.65-.292.437 0 .835.055 1.196.163.36.11.67.271.932.484.26.214.464.475.611.783.148.308.221.657.221 1.046v5.449H36.04v-.94h-.014c-.076.143-.178.273-.306.392s-.268.22-.42.306c-.209.114-.434.201-.676.263-.242.062-.533.092-.875.092zM42.172 12.54L44.22 6.322 45.672 6.322 41.631 17.32 40.379 16.879 41.389 14.218 38.558 6.322 40.052 6.322 42.115 12.54z" transform="translate(-960 -318) translate(71 308) translate(433) translate(420) translate(36 10) translate(7 8)"/>
                                <path fill="#00C73C" d="M0 17.951L17.951 17.951 17.951 0 0 0z" transform="translate(-960 -318) translate(71 308) translate(433) translate(420) translate(36 10) translate(7 8)"/>
                                <path fill="#FFF" d="M10.403 13.084L7.507 8.831 7.507 13.084 4.487 13.084 4.487 4.867 7.549 4.867 10.445 9.12 10.445 4.867 13.463 4.867 13.463 13.084z" transform="translate(-960 -318) translate(71 308) translate(433) translate(420) translate(36 10) translate(7 8)"/>
                            </g>
                        </g>
                    </g>
                </g>
            </g>
        </g>
    </g>
</svg>
